# xmcd CD database file
#
# Track frame offsets:
#	150
#	13337
#	30557
#	42825
#	58152
#	75687
#	95252
#	119425
#	133147
#	152122
#	175017
#	190022
#
# Disc length: 2874 seconds
#
# Revision: 0
# Processed by: cddbd v1.5PL3 Copyright (c) Steve Scherf et al.
# Submitted via: CDex 1.50beta8
#
DISCID=990b380c
DTITLE=マスラヲコミッショナー - BEE ROCK!!
DYEAR=2004
DGENRE=Rock
TTITLE0=韋駄天
TTITLE1=ランナー
TTITLE2=ヒバリ
TTITLE3=浅い川を深く渡る様に
TTITLE4=星の番人
TTITLE5=ミスターオーバー
TTITLE6=to you
TTITLE7=ごくう
TTITLE8=寒椿
TTITLE9=唄っておくれ
TTITLE10=白と黒の中で
TTITLE11=暁の頃
EXTD=YEAR: 2004
EXTT0=
EXTT1=
EXTT2=
EXTT3=
EXTT4=
EXTT5=
EXTT6=
EXTT7=
EXTT8=
EXTT9=
EXTT10=
EXTT11=
PLAYORDER=
